<?xml version="1.0" encoding="utf-8"?>
<!-- Generator: Adobe Illustrator 16.0.0, SVG Export Plug-In . SVG Version: 6.00 Build 0)  -->
<!DOCTYPE svg PUBLIC "-//W3C//DTD SVG 1.1//EN" "http://www.w3.org/Graphics/SVG/1.1/DTD/svg11.dtd">
<svg version="1.1" id="Layer_1" xmlns="http://www.w3.org/2000/svg" xmlns:xlink="http://www.w3.org/1999/xlink" x="0px" y="0px"
	 width="612px" height="792px" viewBox="0 0 612 792" enable-background="new 0 0 612 792" xml:space="preserve">
<g>
	<path fill="#FFFFFF" d="M188.928,485.078c-2.75,0-5-2.25-5-5v-320c0-2.75,2.25-5,5-5h133.367c2.75,0,6.602,1.581,8.559,3.513
		l104.516,103.171c1.957,1.932,3.559,5.763,3.559,8.513v209.804c0,2.75-2.25,5-5,5H188.928z"/>
	<path fill="none" stroke="#000000" stroke-width="12" stroke-miterlimit="10" d="M188.928,485.078c-2.75,0-5-2.25-5-5v-320
		c0-2.75,2.25-5,5-5h133.367c2.75,0,6.602,1.581,8.559,3.513l104.516,103.171c1.957,1.932,3.559,5.763,3.559,8.513v209.804
		c0,2.75-2.25,5-5,5H188.928z"/>
</g>
<line fill="none" stroke="#ED1C24" stroke-width="12" stroke-linecap="round" stroke-miterlimit="10" x1="221.745" y1="196.933" x2="327.295" y2="196.933"/>
<line fill="none" stroke="#F26522" stroke-width="12" stroke-linecap="round" stroke-miterlimit="10" x1="221.745" y1="246.577" x2="327.295" y2="246.577"/>
<line fill="none" stroke="#FFDE17" stroke-width="12" stroke-linecap="round" stroke-miterlimit="10" x1="221.745" y1="296.221" x2="396.997" y2="296.221"/>
<line fill="none" stroke="#00A14B" stroke-width="12" stroke-linecap="round" stroke-miterlimit="10" x1="221.745" y1="345.864" x2="396.997" y2="345.864"/>
<line fill="none" stroke="#21409A" stroke-width="12" stroke-linecap="round" stroke-miterlimit="10" x1="221.745" y1="395.508" x2="396.997" y2="395.508"/>
<line fill="none" stroke="#7F3F98" stroke-width="12" stroke-linecap="round" stroke-miterlimit="10" x1="221.745" y1="445.151" x2="396.997" y2="445.151"/>
<line fill="none" stroke="#ED1C24" stroke-width="12" stroke-linecap="round" stroke-miterlimit="10" x1="359.46" y1="241.241" x2="359.46" y2="186.561"/>
<line fill="none" stroke="#F26522" stroke-width="12" stroke-linecap="round" stroke-miterlimit="10" x1="393.445" y1="221.088" x2="393.445" y2="240.529"/>
<g>
	<path fill="none" stroke="#000000" stroke-width="12" stroke-miterlimit="10" d="M438.928,270.274c0-2.75-2.25-5-5-5H332.295
		c-2.75,0-5-2.25-5-5V160.078c0-2.75-2.25-5-5-5H188.928c-2.75,0-5,2.25-5,5v320c0,2.75,2.25,5,5,5h245c2.75,0,5-2.25,5-5V270.274z"
		/>
</g>
<line fill="none" stroke="#000000" stroke-width="12" stroke-miterlimit="10" x1="343.518" y1="171.092" x2="419.986" y2="246.577"/>
</svg>
