<?xml version="1.0" encoding="utf-8"?>
<!-- Generator: Adobe Illustrator 16.0.0, SVG Export Plug-In . SVG Version: 6.00 Build 0)  -->
<!DOCTYPE svg PUBLIC "-//W3C//DTD SVG 1.1//EN" "http://www.w3.org/Graphics/SVG/1.1/DTD/svg11.dtd">
<svg version="1.1" id="Layer_1" xmlns="http://www.w3.org/2000/svg" xmlns:xlink="http://www.w3.org/1999/xlink" x="0px" y="0px"
	 width="600px" height="449px" viewBox="0 0 600 449" enable-background="new 0 0 600 449" xml:space="preserve">
<g>
	<path fill-rule="evenodd" clip-rule="evenodd" fill="#00A14B" d="M320.595,146.211c0.156,5.061-1.902,9.434-4.318,13.671
		c-2.709,4.751-5.713,9.346-8.21,14.203c-3.55,6.9-5.589,14.304-6.248,22.063c-0.089,1.046-0.284,2.054-1.686,2.109
		c-1.371,0.054-1.724-0.785-1.827-1.924c-1.016-11.245-5.042-21.392-11.107-30.833c-1.986-3.091-3.873-6.274-5.49-9.57
		c-5.566-11.35-0.71-24.54,10.554-29.001C306.059,121.465,320.6,131.361,320.595,146.211z"/>
</g>
<g>
	<path fill-rule="evenodd" clip-rule="evenodd" fill="#F26522" d="M268.407,149.993c1.877,4.702,1.439,9.516,0.618,14.324
		c-0.92,5.391-2.172,10.736-2.857,16.154c-0.976,7.699-0.36,15.352,1.674,22.869c0.274,1.013,0.436,2.027-0.862,2.559
		c-1.269,0.52-1.889-0.148-2.375-1.183c-4.801-10.219-12.055-18.377-20.982-25.174c-2.923-2.226-5.786-4.571-8.432-7.116
		c-9.112-8.762-9.06-22.817-0.001-30.862C246.284,131.711,263.332,136.037,268.407,149.993z"/>
</g>
<g>
	<path fill-rule="evenodd" clip-rule="evenodd" fill="#21409A" d="M368.34,164.049c-1.584,4.809-5.014,8.214-8.733,11.37
		c-4.171,3.538-8.564,6.828-12.571,10.539c-5.697,5.27-10.145,11.528-13.417,18.595c-0.442,0.953-0.971,1.833-2.306,1.405
		c-1.307-0.417-1.352-1.328-1.06-2.433c2.891-10.913,2.578-21.827,0.108-32.771c-0.809-3.584-1.494-7.22-1.885-10.871
		c-1.349-12.569,7.725-23.303,19.836-23.643C363.146,135.824,373.425,150.097,368.34,164.049z"/>
</g>
<g>
	<path fill-rule="evenodd" clip-rule="evenodd" fill="#7F3F98" d="M397.566,212.983c-4.304,2.666-9.12,3.07-13.999,3.096
		c-5.468,0.029-10.949-0.275-16.404-0.008c-7.75,0.375-15.18,2.31-22.229,5.62c-0.952,0.446-1.922,0.781-2.67-0.405
		c-0.732-1.16-0.183-1.886,0.752-2.545c9.23-6.501,16.006-15.063,21.148-25.034c1.685-3.265,3.497-6.491,5.544-9.539
		c7.046-10.496,20.896-12.886,30.392-5.361C411.73,188.022,410.43,205.563,397.566,212.983z"/>
</g>
<g>
	<path fill-rule="evenodd" clip-rule="evenodd" fill="#ED1C24" d="M223,177.349c4.461,2.395,7.219,6.364,9.681,10.575
		c2.76,4.722,5.237,9.621,8.195,14.211c4.2,6.525,9.591,11.992,15.982,16.442c0.862,0.601,1.637,1.274,0.984,2.514
		c-0.638,1.215-1.542,1.101-2.58,0.621c-10.246-4.742-21.048-6.33-32.254-5.797c-3.67,0.174-7.37,0.217-11.033-0.031
		c-12.613-0.854-21.607-11.654-19.839-23.641C194.303,177.563,210.144,169.918,223,177.349z"/>
</g>
<g>
	<g>
		<path fill="#BCBEC0" d="M250,289.961c0,0-5.625,0-12.5,0s-12.5-6.75-12.5-15v-44.119c0-8.25,6.75-15,15-15h120
			c8.25,0,15,6.75,15,15v44.119c0,8.25-5.625,15-12.5,15s-12.5,0-12.5,0"/>
	</g>
	<g>
		<path fill="none" stroke="#000000" stroke-width="6" stroke-miterlimit="10" d="M250,289.961c0,0-5.625,0-12.5,0
			s-12.5-6.75-12.5-15v-44.119c0-8.25,6.75-15,15-15h120c8.25,0,15,6.75,15,15v44.119c0,8.25-5.625,15-12.5,15s-12.5,0-12.5,0"/>
	</g>
</g>
<g>
	<path fill="#E7DED0" d="M350,306.885c0,1.65-1.35,3-3,3h-94c-1.65,0-3-1.35-3-3v-44c0-1.65,1.35-3,3-3h94c1.65,0,3,1.35,3,3
		V306.885z"/>
	<path fill="none" stroke="#000000" stroke-width="6" stroke-miterlimit="10" d="M350,306.885c0,1.65-1.35,3-3,3h-94
		c-1.65,0-3-1.35-3-3v-44c0-1.65,1.35-3,3-3h94c1.65,0,3,1.35,3,3V306.885z"/>
</g>
<path fill="#44484D" stroke="#000000" stroke-miterlimit="10" d="M350,295.5"/>
<g>
	<path fill="none" stroke="#000000" stroke-width="5" stroke-miterlimit="10" d="M325,271.842c0,0.275-2.25,0.5-5,0.5h-40
		c-2.75,0-5-0.225-5-0.5s2.25-0.5,5-0.5h40C322.75,271.342,325,271.566,325,271.842z"/>
</g>
<g>
	<path fill="none" stroke="#000000" stroke-width="5" stroke-miterlimit="10" d="M325,284.842c0,0.275-2.25,0.5-5,0.5h-40
		c-2.75,0-5-0.225-5-0.5s2.25-0.5,5-0.5h40C322.75,284.342,325,284.566,325,284.842z"/>
</g>
<g>
	<path fill="none" stroke="#000000" stroke-width="5" stroke-miterlimit="10" d="M325,297.842c0,0.275-2.25,0.5-5,0.5h-40
		c-2.75,0-5-0.225-5-0.5s2.25-0.5,5-0.5h40C322.75,297.342,325,297.566,325,297.842z"/>
</g>
<g>
	<path fill="#E7DED0" d="M349,212.885c0,1.65-1.35,3-3,3h-94c-1.65,0-3-1.35-3-3v-19c0-1.65,1.35-3,3-3h94c1.65,0,3,1.35,3,3
		V212.885z"/>
	<path fill="none" stroke="#000000" stroke-width="6" stroke-miterlimit="10" d="M349,212.885c0,1.65-1.35,3-3,3h-94
		c-1.65,0-3-1.35-3-3v-19c0-1.65,1.35-3,3-3h94c1.65,0,3,1.35,3,3V212.885z"/>
</g>
</svg>
